# xmcd
#
# Track frame offsets: 
#        150
#        19669
#        34643
#        56861
#        84782
#        100453
#        116028
#        138154
#        150910
#        165195
#        182876
#        199157
#
# Disc length: 2950 seconds
#
# Revision: 0
# Processed by: cddbd v1.5.2PL0 Copyright (c) Steve Scherf et al.
# Submitted via: ExactAudioCopy v0.99pb4
#
DISCID=8e0b840c
DTITLE=Gentlemen's Blues Club-Volume 3 - RED WHITE and BLUE!
DYEAR=2008
DGENRE=Blues
TTITLE0=Harley Davidson Red White and Blue
TTITLE1=Slippin' Away
TTITLE2=Stone Cold Rhythm Shake
TTITLE3=Million-Mile Road
TTITLE4=You Must Survive
TTITLE5=If You Don't Believe Me, Leave Me
TTITLE6=Never Say Never (Edge of a Heartbreak)
TTITLE7=Long Way to Run
TTITLE8=Long Gone
TTITLE9=Spanish Fly (Be My Little Lover)
TTITLE10=Hard On You (Instrumental)
TTITLE11=Superstition (Throb Mix)
EXTD=
EXTT0=
EXTT1=
EXTT2=
EXTT3=
EXTT4=
EXTT5=
EXTT6=
EXTT7=
EXTT8=
EXTT9=
EXTT10=
EXTT11=
PLAYORDER=
